<svg width="849" height="102" viewBox="0 0 849 102" fill="none" xmlns="http://www.w3.org/2000/svg">
<path d="M845.788 70.8154C845.552 70.9581 845.476 71.2654 845.618 71.5018C845.761 71.7382 846.068 71.8142 846.305 71.6715L845.788 70.8154ZM841.062 74.5442C841.309 74.4208 841.409 74.1205 841.286 73.8735C841.162 73.6264 840.862 73.5262 840.615 73.6496L841.062 74.5442ZM835.24 76.118C834.986 76.2255 834.867 76.5188 834.974 76.7732C835.082 77.0276 835.375 77.1467 835.629 77.0392L835.24 76.118ZM830.055 79.2126C830.315 79.1192 830.45 78.8329 830.357 78.573C830.263 78.3131 829.977 78.1781 829.717 78.2715L830.055 79.2126ZM824.105 80.1298C823.841 80.2101 823.692 80.4895 823.772 80.7537C823.853 81.0178 824.132 81.1668 824.396 81.0865L824.105 80.1298ZM818.647 82.6902C818.914 82.6221 819.076 82.35 819.008 82.0824C818.94 81.8148 818.668 81.653 818.4 81.7211L818.647 82.6902ZM812.632 83.0542C812.362 83.1105 812.188 83.3753 812.244 83.6456C812.301 83.9159 812.565 84.0894 812.836 84.0331L812.632 83.0542ZM806.96 85.1276C807.232 85.0828 807.417 84.8255 807.372 84.553C807.327 84.2806 807.07 84.0961 806.797 84.1409L806.96 85.1276ZM800.946 84.982C800.672 85.0158 800.477 85.2653 800.511 85.5394C800.545 85.8135 800.794 86.0083 801.068 85.9745L800.946 84.982ZM795.135 86.5854C795.41 86.5625 795.615 86.3209 795.592 86.0457C795.569 85.7705 795.328 85.566 795.052 85.5888L795.135 86.5854ZM789.132 85.9643C788.856 85.9764 788.642 86.2099 788.654 86.4858C788.667 86.7616 788.9 86.9754 789.176 86.9633L789.132 85.9643ZM783.209 87.1118C783.485 87.1102 783.707 86.885 783.706 86.6089C783.704 86.3327 783.479 86.1102 783.203 86.1118L783.209 87.1118ZM777.285 86.0363C777.009 86.0276 776.779 86.2444 776.77 86.5204C776.761 86.7964 776.978 87.0271 777.254 87.0358L777.285 86.0363ZM771.303 86.7399C771.578 86.7586 771.817 86.5505 771.836 86.275C771.854 85.9995 771.646 85.7609 771.371 85.7422L771.303 86.7399ZM765.468 85.2337C765.194 85.2051 764.948 85.4046 764.919 85.6792C764.891 85.9539 765.09 86.1997 765.365 86.2283L765.468 85.2337ZM759.448 85.5057C759.721 85.544 759.974 85.3533 760.012 85.0799C760.051 84.8064 759.86 84.5537 759.587 84.5154L759.448 85.5057ZM753.733 83.5919C753.461 83.5442 753.201 83.726 753.154 83.998C753.106 84.27 753.288 84.5292 753.56 84.5769L753.733 83.5919ZM747.707 83.4471C747.977 83.504 748.242 83.3311 748.299 83.0609C748.356 82.7907 748.183 82.5255 747.913 82.4686L747.707 83.4471ZM742.134 81.1506C741.866 81.0847 741.595 81.2488 741.529 81.517C741.463 81.7851 741.627 82.0559 741.896 82.1217L742.134 81.1506ZM736.13 80.6065C736.396 80.681 736.672 80.5258 736.747 80.2599C736.821 79.994 736.666 79.718 736.4 79.6435L736.13 80.6065ZM730.716 77.953C730.453 77.8701 730.172 78.0164 730.089 78.2798C730.006 78.5433 730.153 78.824 730.416 78.9069L730.716 77.953ZM724.756 77.0287C725.016 77.1196 725.301 76.9821 725.392 76.7213C725.483 76.4606 725.346 76.1755 725.085 76.0845L724.756 77.0287ZM719.51 74.0436C719.252 73.9448 718.963 74.0737 718.864 74.3316C718.765 74.5894 718.894 74.8786 719.152 74.9774L719.51 74.0436ZM713.62 72.7634C713.874 72.8697 714.167 72.7493 714.274 72.4945C714.38 72.2396 714.26 71.9468 714.005 71.8405L713.62 72.7634ZM708.575 69.4836C708.323 69.3701 708.027 69.4821 707.914 69.7339C707.8 69.9856 707.912 70.2817 708.164 70.3952L708.575 69.4836ZM702.774 67.8734C703.022 67.9939 703.321 67.8901 703.442 67.6416C703.562 67.3931 703.458 67.094 703.21 66.9736L702.774 67.8734ZM848.257 69.2398C847.49 69.7586 846.667 70.285 845.788 70.8154L846.305 71.6715C847.197 71.1327 848.035 70.5972 848.817 70.0681L848.257 69.2398ZM840.615 73.6496C838.949 74.4817 837.155 75.3088 835.24 76.118L835.629 77.0392C837.563 76.2221 839.376 75.3861 841.062 74.5442L840.615 73.6496ZM829.717 78.2715C827.927 78.9143 826.056 79.5362 824.105 80.1298L824.396 81.0865C826.363 80.4882 828.25 79.861 830.055 79.2126L829.717 78.2715ZM818.4 81.7211C816.537 82.1953 814.613 82.6414 812.632 83.0542L812.836 84.0331C814.831 83.6174 816.769 83.168 818.647 82.6902L818.4 81.7211ZM806.797 84.1409C804.893 84.4546 802.942 84.7363 800.946 84.982L801.068 85.9745C803.077 85.7271 805.042 85.4435 806.96 85.1276L806.797 84.1409ZM795.052 85.5888C793.116 85.7496 791.142 85.8758 789.132 85.9643L789.176 86.9633C791.199 86.8743 793.186 86.7472 795.135 86.5854L795.052 85.5888ZM783.203 86.1118C781.26 86.1233 779.287 86.099 777.285 86.0363L777.254 87.0358C779.268 87.0989 781.254 87.1234 783.209 87.1118L783.203 86.1118ZM771.371 85.7422C769.428 85.6101 767.46 85.4413 765.468 85.2337L765.365 86.2283C767.368 86.4372 769.348 86.6069 771.303 86.7399L771.371 85.7422ZM759.587 84.5154C757.656 84.245 755.704 83.9378 753.733 83.5919L753.56 84.5769C755.543 84.9248 757.506 85.2338 759.448 85.5057L759.587 84.5154ZM747.913 82.4686C746.004 82.0664 744.077 81.6276 742.134 81.1506L741.896 82.1217C743.849 82.6014 745.787 83.0427 747.707 83.4471L747.913 82.4686ZM736.4 79.6435C734.52 79.1166 732.625 78.5536 730.716 77.953L730.416 78.9069C732.335 79.5107 734.24 80.0767 736.13 80.6065L736.4 79.6435ZM725.085 76.0845C723.239 75.4401 721.38 74.7602 719.51 74.0436L719.152 74.9774C721.032 75.6976 722.9 76.3809 724.756 77.0287L725.085 76.0845ZM714.005 71.8405C712.205 71.0895 710.395 70.3043 708.575 69.4836L708.164 70.3952C709.992 71.2197 711.811 72.0088 713.62 72.7634L714.005 71.8405ZM703.21 66.9736C702.318 66.5413 701.424 66.1005 700.528 65.651L700.08 66.5448C700.98 66.9963 701.878 67.4392 702.774 67.8734L703.21 66.9736Z" fill="#B8926B"/>
<path d="M469.465 32.317C469.668 32.1303 469.682 31.814 469.495 31.6105C469.308 31.4071 468.992 31.3935 468.789 31.5802L469.465 32.317ZM473.359 27.7258C473.141 27.8957 473.102 28.2099 473.272 28.4276C473.442 28.6453 473.756 28.6841 473.974 28.5142L473.359 27.7258ZM478.753 25.0299C478.981 24.8742 479.04 24.5631 478.884 24.335C478.728 24.107 478.417 24.0484 478.189 24.2041L478.753 25.0299ZM483.222 20.9695C482.986 21.1125 482.911 21.4199 483.054 21.6562C483.197 21.8924 483.504 21.968 483.74 21.825L483.222 20.9695ZM488.873 18.8919C489.116 18.7607 489.206 18.4574 489.075 18.2144C488.944 17.9714 488.641 17.8807 488.398 18.0118L488.873 18.8919ZM493.716 15.3008C493.467 15.4206 493.362 15.7194 493.482 15.9682C493.602 16.217 493.9 16.3217 494.149 16.2019L493.716 15.3008ZM499.539 13.7526C499.793 13.6438 499.911 13.3499 499.802 13.0961C499.693 12.8423 499.399 12.7247 499.145 12.8334L499.539 13.7526ZM504.688 10.5966C504.43 10.6945 504.3 10.9833 504.398 11.2414C504.496 11.4996 504.785 11.6295 505.043 11.5316L504.688 10.5966ZM510.612 9.54794C510.874 9.46056 511.015 9.17738 510.928 8.91542C510.84 8.65347 510.557 8.51194 510.295 8.59932L510.612 9.54794ZM515.99 6.82527C515.724 6.90217 515.572 7.17952 515.649 7.44474C515.726 7.70995 516.003 7.86261 516.268 7.7857L515.99 6.82527ZM521.997 6.24486C522.265 6.17831 522.428 5.9071 522.362 5.6391C522.295 5.37109 522.024 5.20778 521.756 5.27433L521.997 6.24486ZM527.576 3.94665C527.305 4.00295 527.132 4.26775 527.188 4.53809C527.244 4.80843 527.509 4.98194 527.779 4.92564L527.576 3.94665ZM533.595 3.82744C533.867 3.78124 534.05 3.52309 534.004 3.25084C533.958 2.97859 533.7 2.79534 533.427 2.84153L533.595 3.82744ZM539.319 1.95267C539.045 1.98887 538.853 2.24015 538.889 2.51391C538.925 2.78767 539.176 2.98024 539.45 2.94403L539.319 1.95267ZM545.336 2.27319C545.611 2.24684 545.813 2.00264 545.786 1.72775C545.76 1.45287 545.516 1.2514 545.241 1.27775L545.336 2.27319ZM551.184 0.81395C550.908 0.830594 550.698 1.06754 550.715 1.34318C550.731 1.61882 550.968 1.82878 551.244 1.81213L551.184 0.81395ZM557.165 1.5576C557.441 1.55049 557.659 1.32095 557.652 1.0449C557.645 0.768846 557.415 0.550822 557.139 0.557926L557.165 1.5576ZM563.1 0.505903C562.823 0.503651 562.598 0.725675 562.595 1.00181C562.593 1.27794 562.815 1.50362 563.091 1.50587L563.1 0.505903ZM569.017 1.65287C569.293 1.66428 569.526 1.44986 569.537 1.17395C569.549 0.898048 569.334 0.665133 569.058 0.653724L569.017 1.65287ZM575.01 0.996919C574.734 0.976569 574.494 1.18332 574.474 1.45871C574.454 1.7341 574.66 1.97385 574.936 1.9942L575.01 0.996919ZM580.842 2.52523C581.117 2.5543 581.363 2.35524 581.392 2.08063C581.421 1.80603 581.222 1.55985 580.947 1.53079L580.842 2.52523ZM586.868 2.25048C586.594 2.21294 586.342 2.40428 586.304 2.67786C586.267 2.95144 586.458 3.20365 586.732 3.24119L586.868 2.25048ZM592.601 4.13725C592.873 4.18302 593.131 3.99936 593.177 3.72704C593.222 3.45472 593.039 3.19685 592.766 3.15108L592.601 4.13725ZM598.628 4.22519C598.357 4.17146 598.094 4.34748 598.04 4.61835C597.986 4.88921 598.162 5.15235 598.433 5.20608L598.628 4.22519ZM604.222 6.44063C604.491 6.50205 604.759 6.33358 604.821 6.06436C604.882 5.79513 604.714 5.52709 604.445 5.46568L604.222 6.44063ZM610.227 6.86968C609.96 6.80084 609.687 6.96183 609.619 7.22925C609.55 7.49668 609.711 7.76927 609.978 7.83811L610.227 6.86968ZM467.357 34.3504C468.006 33.69 468.709 33.011 469.465 32.317L468.789 31.5802C468.021 32.2851 467.305 32.9761 466.643 33.6496L467.357 34.3504ZM473.974 28.5142C475.442 27.3684 477.036 26.2025 478.753 25.0299L478.189 24.2041C476.455 25.3882 474.844 26.5666 473.359 27.7258L473.974 28.5142ZM483.74 21.825C485.367 20.8404 487.078 19.86 488.873 18.8919L488.398 18.0118C486.589 18.9877 484.863 19.9763 483.222 20.9695L483.74 21.825ZM494.149 16.2019C495.882 15.3679 497.679 14.5496 499.539 13.7526L499.145 12.8334C497.272 13.6362 495.461 14.4606 493.716 15.3008L494.149 16.2019ZM505.043 11.5316C506.848 10.8467 508.704 10.1841 510.612 9.54794L510.295 8.59932C508.375 9.23981 506.506 9.90699 504.688 10.5966L505.043 11.5316ZM516.268 7.7857C518.135 7.24442 520.045 6.72965 521.997 6.24486L521.756 5.27433C519.791 5.76227 517.869 6.2804 515.99 6.82527L516.268 7.7857ZM527.779 4.92564C529.681 4.52951 531.62 4.1625 533.595 3.82744L533.427 2.84153C531.44 3.17869 529.49 3.548 527.576 3.94665L527.779 4.92564ZM539.45 2.94403C541.381 2.68869 543.343 2.46428 545.336 2.27319L545.241 1.27775C543.235 1.46999 541.261 1.69576 539.319 1.95267L539.45 2.94403ZM551.244 1.81213C553.19 1.69461 555.164 1.60909 557.165 1.5576L557.139 0.557926C555.127 0.609717 553.141 0.695734 551.184 0.81395L551.244 1.81213ZM563.091 1.50587C565.043 1.52179 567.018 1.57021 569.017 1.65287L569.058 0.653724C567.048 0.570603 565.062 0.521909 563.1 0.505903L563.091 1.50587ZM574.936 1.9942C576.883 2.13812 578.852 2.31463 580.842 2.52523L580.947 1.53079C578.947 1.31907 576.968 1.14162 575.01 0.996919L574.936 1.9942ZM586.732 3.24119C588.669 3.50706 590.626 3.80531 592.601 4.13725L592.766 3.15108C590.782 2.81748 588.815 2.51772 586.868 2.25048L586.732 3.24119ZM598.433 5.20608C600.346 5.58558 602.276 5.99672 604.222 6.44063L604.445 5.46568C602.489 5.01966 600.55 4.60654 598.628 4.22519L598.433 5.20608ZM609.978 7.83811C610.938 8.08515 611.901 8.34016 612.869 8.60328L613.131 7.63834C612.16 7.37403 611.192 7.11785 610.227 6.86968L609.978 7.83811Z" fill="#B8926B"/>
<path d="M379.788 70.8154C379.552 70.9581 379.476 71.2654 379.618 71.5018C379.761 71.7382 380.068 71.8142 380.305 71.6715L379.788 70.8154ZM375.062 74.5442C375.309 74.4208 375.409 74.1205 375.286 73.8735C375.162 73.6264 374.862 73.5262 374.615 73.6496L375.062 74.5442ZM369.24 76.118C368.986 76.2255 368.867 76.5188 368.974 76.7732C369.082 77.0276 369.375 77.1467 369.629 77.0392L369.24 76.118ZM364.055 79.2126C364.315 79.1192 364.45 78.8329 364.357 78.573C364.263 78.3131 363.977 78.1781 363.717 78.2715L364.055 79.2126ZM358.105 80.1298C357.841 80.2101 357.692 80.4895 357.772 80.7537C357.853 81.0178 358.132 81.1668 358.396 81.0865L358.105 80.1298ZM352.647 82.6902C352.914 82.6221 353.076 82.35 353.008 82.0824C352.94 81.8148 352.668 81.653 352.4 81.7211L352.647 82.6902ZM346.632 83.0542C346.362 83.1105 346.188 83.3753 346.244 83.6456C346.301 83.9159 346.565 84.0894 346.836 84.0331L346.632 83.0542ZM340.96 85.1276C341.232 85.0828 341.417 84.8255 341.372 84.553C341.327 84.2806 341.07 84.0961 340.797 84.1409L340.96 85.1276ZM334.946 84.982C334.672 85.0158 334.477 85.2653 334.511 85.5394C334.545 85.8135 334.794 86.0083 335.068 85.9745L334.946 84.982ZM329.135 86.5854C329.41 86.5625 329.615 86.3209 329.592 86.0457C329.569 85.7705 329.328 85.566 329.052 85.5888L329.135 86.5854ZM323.132 85.9643C322.856 85.9764 322.642 86.2099 322.654 86.4858C322.667 86.7616 322.9 86.9754 323.176 86.9633L323.132 85.9643ZM317.209 87.1118C317.485 87.1102 317.707 86.885 317.706 86.6089C317.704 86.3327 317.479 86.1102 317.203 86.1118L317.209 87.1118ZM311.285 86.0363C311.009 86.0276 310.779 86.2444 310.77 86.5204C310.761 86.7964 310.978 87.0271 311.254 87.0358L311.285 86.0363ZM305.303 86.7399C305.578 86.7586 305.817 86.5505 305.836 86.275C305.854 85.9995 305.646 85.7609 305.371 85.7422L305.303 86.7399ZM299.468 85.2337C299.194 85.2051 298.948 85.4046 298.919 85.6792C298.891 85.9539 299.09 86.1997 299.365 86.2283L299.468 85.2337ZM293.448 85.5057C293.721 85.544 293.974 85.3533 294.012 85.0799C294.051 84.8064 293.86 84.5537 293.587 84.5154L293.448 85.5057ZM287.733 83.5919C287.461 83.5442 287.201 83.726 287.154 83.998C287.106 84.27 287.288 84.5292 287.56 84.5769L287.733 83.5919ZM281.707 83.4471C281.977 83.504 282.242 83.3311 282.299 83.0609C282.356 82.7907 282.183 82.5255 281.913 82.4686L281.707 83.4471ZM276.134 81.1506C275.866 81.0847 275.595 81.2488 275.529 81.517C275.463 81.7851 275.627 82.0559 275.896 82.1217L276.134 81.1506ZM270.13 80.6065C270.396 80.681 270.672 80.5258 270.747 80.2599C270.821 79.994 270.666 79.718 270.4 79.6435L270.13 80.6065ZM264.716 77.953C264.453 77.8701 264.172 78.0164 264.089 78.2798C264.006 78.5433 264.153 78.824 264.416 78.9069L264.716 77.953ZM258.756 77.0287C259.016 77.1196 259.301 76.9821 259.392 76.7213C259.483 76.4606 259.346 76.1755 259.085 76.0845L258.756 77.0287ZM253.51 74.0436C253.252 73.9448 252.963 74.0737 252.864 74.3316C252.765 74.5894 252.894 74.8786 253.152 74.9774L253.51 74.0436ZM247.62 72.7634C247.874 72.8697 248.167 72.7493 248.274 72.4945C248.38 72.2396 248.26 71.9468 248.005 71.8405L247.62 72.7634ZM242.575 69.4836C242.323 69.3701 242.027 69.4821 241.914 69.7339C241.8 69.9856 241.912 70.2817 242.164 70.3952L242.575 69.4836ZM236.774 67.8734C237.022 67.9939 237.321 67.8901 237.442 67.6416C237.562 67.3931 237.458 67.094 237.21 66.9736L236.774 67.8734ZM382.257 69.2398C381.49 69.7586 380.667 70.285 379.788 70.8154L380.305 71.6715C381.197 71.1327 382.035 70.5972 382.817 70.0681L382.257 69.2398ZM374.615 73.6496C372.949 74.4817 371.155 75.3088 369.24 76.118L369.629 77.0392C371.563 76.2221 373.376 75.3861 375.062 74.5442L374.615 73.6496ZM363.717 78.2715C361.927 78.9143 360.056 79.5362 358.105 80.1298L358.396 81.0865C360.363 80.4882 362.25 79.861 364.055 79.2126L363.717 78.2715ZM352.4 81.7211C350.537 82.1953 348.613 82.6414 346.632 83.0542L346.836 84.0331C348.831 83.6174 350.769 83.168 352.647 82.6902L352.4 81.7211ZM340.797 84.1409C338.893 84.4546 336.942 84.7363 334.946 84.982L335.068 85.9745C337.077 85.7271 339.042 85.4435 340.96 85.1276L340.797 84.1409ZM329.052 85.5888C327.116 85.7496 325.142 85.8758 323.132 85.9643L323.176 86.9633C325.199 86.8743 327.186 86.7472 329.135 86.5854L329.052 85.5888ZM317.203 86.1118C315.26 86.1233 313.287 86.099 311.285 86.0363L311.254 87.0358C313.268 87.0989 315.254 87.1234 317.209 87.1118L317.203 86.1118ZM305.371 85.7422C303.428 85.6101 301.46 85.4413 299.468 85.2337L299.365 86.2283C301.368 86.4372 303.348 86.6069 305.303 86.7399L305.371 85.7422ZM293.587 84.5154C291.656 84.245 289.704 83.9378 287.733 83.5919L287.56 84.5769C289.543 84.9248 291.506 85.2338 293.448 85.5057L293.587 84.5154ZM281.913 82.4686C280.004 82.0664 278.077 81.6276 276.134 81.1506L275.896 82.1217C277.849 82.6014 279.787 83.0427 281.707 83.4471L281.913 82.4686ZM270.4 79.6435C268.52 79.1166 266.625 78.5536 264.716 77.953L264.416 78.9069C266.335 79.5107 268.24 80.0767 270.13 80.6065L270.4 79.6435ZM259.085 76.0845C257.239 75.4401 255.38 74.7602 253.51 74.0436L253.152 74.9774C255.032 75.6976 256.9 76.3809 258.756 77.0287L259.085 76.0845ZM248.005 71.8405C246.205 71.0895 244.395 70.3043 242.575 69.4836L242.164 70.3952C243.992 71.2197 245.811 72.0088 247.62 72.7634L248.005 71.8405ZM237.21 66.9736C236.318 66.5413 235.424 66.1005 234.528 65.651L234.08 66.5448C234.98 66.9963 235.878 67.4392 236.774 67.8734L237.21 66.9736Z" fill="#B8926B"/>
<path d="M3.46478 32.317C3.66823 32.1303 3.68181 31.814 3.4951 31.6105C3.30839 31.4071 2.9921 31.3935 2.78864 31.5802L3.46478 32.317ZM7.35865 27.7258C7.14095 27.8957 7.10218 28.2099 7.27207 28.4276C7.44195 28.6453 7.75615 28.6841 7.97385 28.5142L7.35865 27.7258ZM12.7531 25.0299C12.9812 24.8742 13.0398 24.5631 12.8841 24.335C12.7283 24.107 12.4172 24.0484 12.1892 24.2041L12.7531 25.0299ZM17.2224 20.9695C16.9862 21.1125 16.9106 21.4199 17.0536 21.6562C17.1965 21.8924 17.504 21.968 17.7402 21.825L17.2224 20.9695ZM22.8727 18.8919C23.1158 18.7607 23.2065 18.4574 23.0753 18.2144C22.9442 17.9714 22.6409 17.8807 22.3979 18.0118L22.8727 18.8919ZM27.7156 15.3008C27.4668 15.4206 27.3621 15.7194 27.4819 15.9682C27.6017 16.217 27.9005 16.3217 28.1493 16.2019L27.7156 15.3008ZM33.5393 13.7526C33.7931 13.6438 33.9107 13.3499 33.8019 13.0961C33.6932 12.8423 33.3993 12.7247 33.1454 12.8334L33.5393 13.7526ZM38.688 10.5966C38.4298 10.6945 38.2999 10.9833 38.3979 11.2414C38.4958 11.4996 38.7845 11.6295 39.0427 11.5316L38.688 10.5966ZM44.6116 9.54794C44.8736 9.46057 45.0151 9.17738 44.9277 8.91542C44.8404 8.65347 44.5572 8.51194 44.2952 8.59932L44.6116 9.54794ZM49.9896 6.82527C49.7244 6.90218 49.5718 7.17952 49.6487 7.44474C49.7256 7.70996 50.0029 7.86261 50.2681 7.7857L49.9896 6.82527ZM55.9969 6.24486C56.2649 6.17831 56.4282 5.9071 56.3617 5.6391C56.2951 5.37109 56.0239 5.20778 55.7559 5.27433L55.9969 6.24486ZM61.5755 3.94665C61.3052 4.00295 61.1317 4.26775 61.188 4.53809C61.2443 4.80843 61.5091 4.98194 61.7794 4.92564L61.5755 3.94665ZM67.5946 3.82744C67.8668 3.78124 68.0501 3.52309 68.0039 3.25084C67.9577 2.97859 67.6995 2.79534 67.4273 2.84153L67.5946 3.82744ZM73.319 1.95267C73.0452 1.98887 72.8527 2.24015 72.8889 2.51391C72.9251 2.78767 73.1764 2.98024 73.4501 2.94403L73.319 1.95267ZM79.3362 2.27319C79.6111 2.24684 79.8125 2.00264 79.7862 1.72775C79.7598 1.45287 79.5156 1.2514 79.2408 1.27775L79.3362 2.27319ZM85.1835 0.81395C84.9079 0.830595 84.6979 1.06754 84.7146 1.34318C84.7312 1.61882 84.9682 1.82878 85.2438 1.81213L85.1835 0.81395ZM91.1647 1.5576C91.4408 1.55049 91.6588 1.32095 91.6517 1.0449C91.6446 0.768847 91.415 0.550822 91.139 0.557926L91.1647 1.5576ZM97.0996 0.505904C96.8234 0.503651 96.5978 0.725676 96.5955 1.00181C96.5932 1.27794 96.8153 1.50362 97.0914 1.50587L97.0996 0.505904ZM103.017 1.65287C103.293 1.66428 103.526 1.44986 103.537 1.17395C103.549 0.898048 103.334 0.665133 103.058 0.653724L103.017 1.65287ZM109.01 0.996919C108.734 0.976569 108.494 1.18332 108.474 1.45871C108.454 1.7341 108.66 1.97385 108.936 1.9942L109.01 0.996919ZM114.842 2.52523C115.117 2.5543 115.363 2.35524 115.392 2.08063C115.421 1.80603 115.222 1.55985 114.947 1.53079L114.842 2.52523ZM120.868 2.25048C120.594 2.21294 120.342 2.40428 120.304 2.67786C120.267 2.95144 120.458 3.20365 120.732 3.24119L120.868 2.25048ZM126.601 4.13725C126.873 4.18302 127.131 3.99936 127.177 3.72704C127.222 3.45472 127.039 3.19685 126.766 3.15108L126.601 4.13725ZM132.628 4.22519C132.357 4.17146 132.094 4.34748 132.04 4.61835C131.986 4.88921 132.162 5.15235 132.433 5.20608L132.628 4.22519ZM138.222 6.44063C138.491 6.50205 138.759 6.33358 138.821 6.06436C138.882 5.79513 138.714 5.52709 138.444 5.46568L138.222 6.44063ZM144.227 6.86968C143.96 6.80084 143.687 6.96183 143.619 7.22925C143.55 7.49668 143.711 7.76927 143.978 7.83811L144.227 6.86968ZM1.35663 34.3504C2.00562 33.69 2.70855 33.011 3.46478 32.317L2.78864 31.5802C2.02051 32.2851 1.30514 32.9761 0.643367 33.6496L1.35663 34.3504ZM7.97385 28.5142C9.44213 27.3684 11.0361 26.2025 12.7531 25.0299L12.1892 24.2041C10.4553 25.3882 8.84419 26.5666 7.35865 27.7258L7.97385 28.5142ZM17.7402 21.825C19.3669 20.8404 21.0783 19.86 22.8727 18.8919L22.3979 18.0118C20.589 18.9877 18.8633 19.9763 17.2224 20.9695L17.7402 21.825ZM28.1493 16.2019C29.882 15.3679 31.679 14.5496 33.5393 13.7526L33.1454 12.8334C31.2717 13.6362 29.4614 14.4606 27.7156 15.3008L28.1493 16.2019ZM39.0427 11.5316C40.8477 10.8467 42.7043 10.1841 44.6116 9.54794L44.2952 8.59932C42.375 9.23981 40.5056 9.907 38.688 10.5966L39.0427 11.5316ZM50.2681 7.7857C52.1347 7.24442 54.0446 6.72965 55.9969 6.24486L55.7559 5.27433C53.7909 5.76227 51.8686 6.2804 49.9896 6.82527L50.2681 7.7857ZM61.7794 4.92564C63.6814 4.52951 65.62 4.16251 67.5946 3.82744L67.4273 2.84153C65.4404 3.17869 63.4896 3.548 61.5755 3.94665L61.7794 4.92564ZM73.4501 2.94403C75.3807 2.68869 77.3429 2.46428 79.3362 2.27319L79.2408 1.27775C77.2355 1.46999 75.2614 1.69576 73.319 1.95267L73.4501 2.94403ZM85.2438 1.81213C87.19 1.69461 89.1638 1.60909 91.1647 1.5576L91.139 0.557926C89.1265 0.609717 87.1412 0.695735 85.1835 0.81395L85.2438 1.81213ZM97.0914 1.50587C99.0426 1.52179 101.018 1.57021 103.017 1.65287L103.058 0.653724C101.048 0.570603 99.0618 0.521909 97.0996 0.505904L97.0914 1.50587ZM108.936 1.9942C110.883 2.13812 112.852 2.31463 114.842 2.52523L114.947 1.53079C112.947 1.31907 110.968 1.14162 109.01 0.996919L108.936 1.9942ZM120.732 3.24119C122.669 3.50706 124.626 3.80531 126.601 4.13725L126.766 3.15108C124.782 2.81748 122.815 2.51772 120.868 2.25048L120.732 3.24119ZM132.433 5.20608C134.346 5.58558 136.276 5.99672 138.222 6.44063L138.444 5.46568C136.489 5.01966 134.55 4.60654 132.628 4.22519L132.433 5.20608ZM143.978 7.83811C144.938 8.08515 145.901 8.34016 146.869 8.60327L147.131 7.63834C146.16 7.37403 145.192 7.11785 144.227 6.86968L143.978 7.83811Z" fill="#B8926B"/>
</svg>
